<?xml version="1.0" encoding="utf-8"?>
<!-- Generator: Adobe Illustrator 28.1.0, SVG Export Plug-In . SVG Version: 6.00 Build 0)  -->
<svg version="1.1"  id="Capa_1" xmlns="http://www.w3.org/2000/svg" xmlns:xlink="http://www.w3.org/1999/xlink" x="0px" y="0px"
	 viewBox="940 940" style="enable-background:new 640 640;" xml:space="preserve">
<g transform="translate(0.000000,640.000000) scale(0.100000,-0.100000)">
	<path fill="#757575" d="M1720,5712c-12-16-23-35-24-43c-2-8-7-23-12-34s-9-78-9-150c0-120,3-138,33-229c34-104,36-108,101-246
		c52-110,177-328,201-350c3-3,23-32,44-65c22-33,71-102,110-153c39-52,78-104,86-115c8-12,62-87,120-167c211-289,250-354,284-472
		c24-83,21-288-4-288c-5,0-22,22-39,49c-40,66-122,145-212,206c-41,27-76,52-79,55s-36,27-75,52c-38,26-86,58-105,71
		c-19,14-111,75-205,135c-198,130-281,188-419,296c-105,83-326,296-326,315c0,6-10,28-23,49c-48,77-87,224-87,327
		c0,225,141,465,377,641c75,56,236,143,266,143C1739,5740,1739,5738,1720,5712z M4743,5679c101-50,123-64,217-142
		c164-136,256-259,313-422c30-82,31-292,3-375c-57-169-126-264-290-403c-195-165-255-208-561-410c-183-120-415-279-502-343
		c-63-46-137-130-173-193c-17-32-25,3-25,117c0,130,13,182,71,290c27,50,145,221,233,338c9,12,23,32,31,44c15,23,143,197,157,215
		c5,6,37,50,73,99c151,211,261,398,329,561c23,55,46,109,51,120c22,52,43,137,53,217c14,115-1,212-43,274
		C4644,5720,4656,5723,4743,5679z M2200,5570c0-6-32-10-75-10h-75v-65v-65h75c60,0,75-3,75-15s-15-15-75-15h-75v-95c0-57-4-95-10-95
		s-10,68-10,185v185h85C2165,5580,2200,5576,2200,5570z M2640,5570c0-6-37-10-90-10h-90v-65v-65h90c73,0,90-3,90-15s-17-15-90-15
		h-90v-80v-80h90c73,0,90-3,90-15s-18-15-100-15h-100v185v185h100C2600,5580,2640,5576,2640,5570z M3160,5398l-1-183l-39,45
		c-22,25-79,91-128,147l-87,102l-3-150c-2-113-6-149-15-146s-13,52-14,183l-3,179l48-50c26-28,72-80,102-115s67-78,82-95
		c32-35,30-47,29,138c0,105,2,127,14,127C3158,5580,3160,5552,3160,5398z M3430,5395c0-117-4-185-10-185s-10,68-10,185s4,185,10,185
		S3430,5512,3430,5395z M3765,5525c21-30,40-57,44-59c4-3,25,22,46,55c33,49,45,59,69,59c34,0,33-5-30-100c-25-39-44-76-41-83
		s28-48,56-91s51-82,51-87c0-4-12-7-27-6c-22,2-37,16-73,69c-24,36-48,64-52,62c-4-3-26-34-49-69c-37-57-45-65-70-63
		c-16,1-29,4-29,6c0,3,20,35,43,71c50,76,67,106,67,119c0,5-22,44-50,86c-27,42-50,79-50,81c0,3,13,5,29,5
		C3724,5580,3735,5571,3765,5525z M4310,5394c0-144-3-185-12-181c-14,4-15,15-17,120l-1,67h-75c-60,0-75,3-75,15s15,15,74,15h74
		l4,55c1,30,2,60,0,65c-2,6-37,10-78,10c-43,0-74,4-74,10s37,10,90,10h90V5394z M991,4899c-4-62,13-153,40-217
		c60-139,247-349,409-457c25-16,47-32,50-35s39-28,80-56s152-104,245-170c306-216,372-262,410-289c177-121,310-222,339-256
		c45-53,69-124,70-213c1-68,0-71-22-69c-22,3-94,37-255,121c-43,22-126,59-185,82s-116,45-127,49c-78,32-219,82-370,132
		c-33,12-69,24-80,29s-56,20-100,35c-288,96-412,161-525,275c-73,73-88,93-126,168c-88,171-84,400,10,646c31,81,126,276,135,276
		C992,4950,993,4927,991,4899z M5458,4818c132-267,180-503,136-680c-14-58-77-206-92-218c-4-3-24-26-44-51c-67-83-227-189-368-242
		c-96-37-104-40-115-43c-5-1-89-30-185-64s-183-63-192-65s-26-9-38-15s-29-13-38-15c-61-12-465-175-522-210c-50-31-201-103-225-107
		c-19-3-20,2-18,77c2,136,46,208,182,303c42,29,99,69,126,88c28,19,82,57,120,85c39,27,88,63,110,78s96,67,165,116s146,103,173,122
		c26,18,71,50,100,70c28,20,95,66,147,101c125,85,169,121,262,212c172,168,252,319,253,481c0,48,3,85,6,83S5430,4874,5458,4818z
		 M2906,4599c60-75,123-154,139-175c17-21,68-85,114-143c105-132,146-216,202-414c15-52,32-57,37-11c4,49,12,75,21,70
		c8-6,111-209,111-221c0-3,8-25,19-48c59-133,104-293,127-454c16-107,16-132,5-200c-7-43-21-101-31-130c-34-98-155-263-330-450
		c-66-70-120-133-120-140c0-36-108,44-205,152c-203,228-291,461-265,699c10,81,29,142,81,254c75,160,103,251,119,389
		c30,265-7,568-102,833c-30,85-45,139-36,130C2795,4737,2846,4674,2906,4599z M3151,4502c86-46,163-65,241-59c89,8,134-6,186-56
		c60-59,122-195,139-306c5-32,4-34-18-27c-55,16-67,19-121,28c-50,9-62,8-100-11c-23-11-45-17-49-13c-8,8-285,356-328,411
		c-14,19-38,49-53,66c-35,41-25,52,17,21C3082,4543,3121,4518,3151,4502z M761,4000c39-71,87-130,170-204c146-132,277-204,539-301
		c85-31,171-62,190-70c170-64,499-179,635-221c152-46,180-57,218-85c44-31,87-85,87-109c0-14-17-15-132-13c-73,2-299,5-503,7
		c-502,6-614,23-830,127c-157,76-285,199-369,356c-90,169-130,422-90,576c22,85,25,87,44,31C729,4067,747,4025,761,4000z M5720,3967
		c19-160-23-376-99-510c-51-91-80-128-160-207c-70-69-106-95-190-138c-56-29-128-60-159-68c-32-9-73-20-92-26c-117-32-232-39-770-43
		c-228-1-425-6-437-10c-35-11-30,24,10,76c32,42,141,108,180,109c57,1,1026,348,1159,415c199,100,400,276,470,410
		c20,39,39,86,43,105l8,35l14-34C5705,4062,5715,4011,5720,3967z M918,3176c102-75,288-160,407-186c28-7,59-14,70-16
		c206-46,453-62,711-46c104,7,205,15,224,19c19,3,73,7,120,7c69,1,93-3,126-21c35-19,103-89,93-97c-2-1-31-9-64-16
		c-72-16-148-43-233-81c-35-16-67-29-72-29c-4,0-37-16-72-36c-110-63-240-124-333-156c-84-30-100-32-230-32c-77-1-153,2-170,6
		c-88,21-110,29-189,67c-86,42-192,116-257,180c-155,154-284,386-304,546l-7,56l61-61C833,3246,886,3199,918,3176z M5646,3259
		c-4-27-18-82-32-120c-93-258-291-488-521-604c-126-64-241-89-380-82c-59,2-121,8-137,11c-82,19-224,76-331,133
		c-211,113-380,182-482,199c-24,4-43,10-43,15c0,16,62,78,93,94c45,22,129,28,227,16c434-56,905-20,1175,89c56,23,165,77,200,99
		c60,39,62,40,149,123c45,43,83,78,85,78S5650,3287,5646,3259z M2651,2749c19-7,42-19,53-28c18-16,61-91,54-95c-2-1-30-24-63-50
		s-73-57-88-69s-47-38-71-57s-59-47-77-62c-19-14-75-59-125-100c-259-210-300-242-348-273c-71-46-118-64-205-81
		c-152-29-299,25-444,165c-53,51-183,214-200,251c-4,8-21,38-38,65c-57,95-156,315-141,315c4,0,30-20,57-44c109-95,280-189,420-231
		c308-92,520-49,920,189c140,83,196,109,251,115C2612,2759,2632,2755,2651,2749z M3898,2692c33-16,113-61,178-99
		c118-69,245-133,294-148c3-1,39-12,80-26c68-22,91-24,245-23l170,1l118,41c137,47,250,110,361,199c43,35,81,62,83,59
		c12-11-61-176-137-311c-95-170-252-349-363-414c-187-109-374-95-567,44c-54,39-94,71-299,238c-53,44-112,92-131,107
		c-19,16-55,45-80,66c-25,20-79,62-120,93s-81,61-88,67c-12,8-11,16,1,47C3686,2734,3772,2754,3898,2692z M3647,2265
		c313-297,349-337,407-454c58-114,74-242,47-361c-29-127-139-297-268-417c-79-72-88-73-55-6c64,128,77,185,77,343
		c0,130-3,154-28,231c-46,146-119,273-298,514c-63,86-92,156-92,220c0,47,19,87,39,83C3483,2416,3561,2348,3647,2265z M2942,2317
		c15-12,12-17-30-48c-25-19-55-52-66-75c-29-56-43-92-161-419c-48-132-91-249-96-260s-22-56-39-100s-65-150-108-235
		c-67-137-85-163-147-225c-40-40-94-82-127-98c-68-34-187-67-245-67c-44,0-164,24-198,40c-11,5-37,16-58,24c-20,8-72,38-115,67
		c-108,72-290,261-226,234c43-17,101-26,139-20c227,36,490,249,850,690c22,27,67,81,101,120c33,38,71,84,84,100c14,17,70,76,126,132
		c71,72,118,110,155,128C2840,2332,2914,2338,2942,2317z M3395,2257c8-39,56-151,67-155c4-2,8-8,8-13c0-11,118-193,166-256
		c18-23,51-80,73-125c169-348,117-635-152-841c-20-15-40-27-45-27c-6,0-12-4-14-8c-7-18-188-99-278-126c-52-15-102-31-111-36
		s-19-6-23-3c-3,3,16,18,43,32c76,40,166,114,216,178c41,52,102,163,110,203c2,8,9,31,15,50s14,94,17,165c8,195-22,376-112,675
		c-39,130-48,192-37,254C3354,2306,3382,2322,3395,2257z M3044,2244c11-10,13-21,7-32c-13-25-22-104-46-407c-43-537-49-579-103-712
		c-98-241-318-366-612-349c-58,3-123,11-145,17l-40,12l41,12c94,29,174,84,242,169c62,76,126,187,158,275c14,36,31,80,39,96
		c8,17,26,64,41,105c14,41,35,94,45,117c11,23,19,48,19,55c0,8,4,18,9,24c8,9,128,336,172,469c25,78,59,138,86,154
		C2984,2264,3026,2262,3044,2244z M3310,1970c11-52,25-111,30-130c61-252,90-399,90-455c0-65-28-242-46-295c-46-133-129-249-223-314
		c-129-90-392-138-572-106c-30,5-73,11-97,12c-48,3-53,20-7,23c174,11,377,156,458,328c57,119,66,170,112,622c35,338,46,483,42,517
		c-3,21-1,40,4,43c10,7,57-21,82-49c13-15,20-17,24-8c3,7,19,26,36,42l32,30l7-83C3285,2102,3298,2022,3310,1970z"/>
</g>
</svg>
